<svg width="14" height="16" viewBox="0 0 14 16" fill="none" xmlns="http://www.w3.org/2000/svg">
<path d="M6.99976 1.46823C5.79739 1.46823 4.82267 2.44295 4.82267 3.64532V7.27379C4.82267 8.47616 5.79739 9.45087 6.99976 9.45087C8.20213 9.45087 9.17684 8.47616 9.17684 7.27379V3.64532C9.17684 2.44295 8.20213 1.46823 6.99976 1.46823ZM7.72545 13.7652V14.8936C7.72545 15.2944 7.40055 15.6193 6.99976 15.6193C6.59897 15.6193 6.27406 15.2944 6.27406 14.8936V13.7652C3.00847 13.4042 0.468506 10.6356 0.468506 7.27379C0.468506 6.873 0.79341 6.5481 1.1942 6.5481C1.59499 6.5481 1.91989 6.873 1.91989 7.27379C1.91989 10.0793 4.19423 12.3537 6.99976 12.3537C9.80529 12.3537 12.0796 10.0793 12.0796 7.27379C12.0796 6.873 12.4045 6.5481 12.8053 6.5481C13.2061 6.5481 13.531 6.873 13.531 7.27379C13.531 10.6356 10.991 13.4042 7.72545 13.7652ZM6.99976 0.0168457C9.00371 0.0168457 10.6282 1.64137 10.6282 3.64532V7.27379C10.6282 9.27774 9.00371 10.9023 6.99976 10.9023C4.99581 10.9023 3.37128 9.27774 3.37128 7.27379V3.64532C3.37128 1.64137 4.99581 0.0168457 6.99976 0.0168457Z" fill="white"/>
</svg>
