<svg width="545" height="357" viewBox="0 0 545 357" fill="none" xmlns="http://www.w3.org/2000/svg">
<g opacity="0.1">
<path d="M367.003 150.568C377.806 156.805 388.088 163.073 397.791 169.343C451.072 203.758 485.42 236.934 499.881 267.949C514.679 299.677 508.078 328.399 480.262 353.324C395.817 428.986 332.429 469.502 290.487 496.308C271.609 508.375 256.696 517.906 246.685 526.384C230.026 540.496 188.938 548.275 139.455 546.694C86.2045 544.99 35.0345 533.033 -0.93697 513.883C-50.5473 487.474 -111.477 470.956 -153.854 461.752C-203.218 451.03 -256.72 443.982 -296.97 442.902C-322.954 442.207 -343.43 430.871 -356.181 410.127C-378.257 374.208 -374.374 314.781 -346.048 255.043C-332.621 226.73 -318.736 197.449 -303.662 170.163C-286.996 139.991 -270.614 115.581 -253.587 95.5336C-233.251 71.6 -211.485 53.0869 -187.049 38.9411C-159.764 23.1491 -129.771 13.1034 -95.3543 8.22955C-36.5753 -0.0954195 94.8847 30.3689 224.329 82.3088C277.281 103.559 325.912 126.85 367.001 150.572L367.003 150.568ZM-331.856 432.243C-321.867 438.01 -310.125 441.157 -296.931 441.509C-256.595 442.59 -202.999 449.65 -153.559 460.389C-111.098 469.614 -50.0338 486.168 -0.280793 512.654C35.508 531.703 86.457 543.608 139.505 545.302C188.656 546.874 229.385 539.217 245.792 525.319C255.878 516.777 270.823 507.226 289.744 495.132C331.652 468.348 394.976 427.87 479.339 352.284C506.644 327.817 513.134 299.64 498.627 268.528C484.276 237.758 450.099 204.778 397.042 170.502C350.512 140.443 290.612 110.39 223.819 83.5904C94.5754 31.7288 -36.5903 1.30093 -95.1537 9.59535C-129.391 14.4448 -159.216 24.4322 -186.348 40.1359C-210.647 54.2009 -232.295 72.6114 -252.524 96.4249C-290.48 141.1 -318.087 199.325 -344.789 255.631C-372.919 314.948 -376.831 373.867 -354.992 409.393C-348.964 419.203 -341.168 426.861 -331.853 432.239L-331.856 432.243Z" fill="white"/>
<path d="M348.633 166.941C357.178 171.874 365.355 176.825 373.134 181.78C422.187 213.034 453.856 243.183 467.267 271.396C480.821 299.917 475.165 325.771 450.455 348.242C376.323 416.664 317.239 456.363 278.148 482.631C259.795 494.963 245.301 504.704 235.227 513.328C218.938 527.262 180.355 535.324 134.53 534.37C85.462 533.349 37.6589 522.561 3.37512 504.776C-42.5129 480.633 -98.4633 465.131 -137.314 456.376C-182.959 446.092 -230.621 439.237 -268.087 437.575C-291.73 436.521 -310.344 425.812 -321.921 406.601C-342.019 373.255 -338.43 318.589 -312.546 263.931C-288.177 212.342 -262.979 158.992 -227.37 117.188C-208.615 95.1681 -188.542 78.1075 -166.008 65.0327C-140.873 50.4461 -113.267 41.1166 -81.6237 36.5004C-27.3215 28.4007 93.9989 55.6658 213.403 102.798C263.785 122.686 309.957 144.605 348.64 166.939L348.633 166.941ZM-298.953 427.714C-290.055 432.851 -279.667 435.75 -268.034 436.27C-230.496 437.937 -182.747 444.799 -137.033 455.102C-98.1022 463.876 -42.0376 479.412 3.97529 503.616C38.0861 521.312 85.6786 532.048 134.552 533.063C180.07 534.011 218.319 526.066 234.374 512.333C244.505 503.657 259.029 493.901 277.412 481.543C316.475 455.297 375.501 415.634 449.565 347.274C473.803 325.231 479.36 299.891 466.08 271.951C452.778 243.966 421.267 213.999 372.425 182.878C329.506 155.529 274.345 128.26 212.912 104.01C93.7002 56.9518 -27.3401 29.7201 -81.4435 37.7903C-112.925 42.3769 -140.375 51.6578 -165.363 66.1579C-187.769 79.1575 -207.728 96.1234 -226.387 118.033C-261.885 159.709 -287.047 212.978 -311.379 264.493C-337.076 318.762 -340.69 372.954 -320.813 405.931C-315.163 415.305 -307.793 422.616 -298.955 427.718L-298.953 427.714Z" fill="white"/>
<path d="M330.214 183.23C336.541 186.883 342.634 190.545 348.488 194.213C393.317 222.302 422.308 249.43 434.66 274.837C446.971 300.15 442.253 323.137 420.637 343.159C356.336 404.776 303.569 442.156 265.043 469.444C247.558 481.829 233.75 491.614 223.753 500.271C207.588 514.24 172.387 522.379 129.589 522.045C84.6929 521.697 40.2566 512.079 7.67254 495.665C-68.7528 456.017 -181.844 436.019 -239.214 432.246C-260.517 430.834 -277.276 420.746 -287.684 403.065C-305.799 372.296 -302.495 322.391 -279.064 272.824C-258.086 228.203 -234.305 177.631 -201.169 138.843C-183.991 118.738 -165.617 103.128 -144.988 91.1219C-121.999 77.7428 -96.7871 69.1251 -67.9099 64.771C-42.9084 60.8236 -3.19605 64.5575 46.9247 75.5721C95.0679 86.1502 150.312 103.098 202.474 123.283C250.269 141.78 293.977 162.309 330.21 183.228L330.214 183.23ZM-266.038 423.218C-258.238 427.721 -249.206 430.366 -239.133 431.032C-181.664 434.809 -68.3576 454.851 8.22879 494.581C40.6478 510.91 84.8879 520.479 129.602 520.829C172.108 521.16 207.009 513.131 222.958 499.352C232.998 490.656 246.83 480.858 264.343 468.453C302.837 441.183 355.56 403.832 419.807 342.273C440.988 322.653 445.615 300.147 433.567 275.37C421.314 250.17 392.474 223.215 347.841 195.25C308.528 170.619 258.106 146.123 202.038 124.426C149.929 104.261 94.7525 87.3356 46.6666 76.7693C-3.30269 65.7887 -42.8555 62.0561 -67.7168 65.9829C-96.4452 70.3107 -121.517 78.881 -144.364 92.1815C-164.873 104.118 -183.149 119.641 -200.234 139.639C-233.264 178.301 -257.008 228.798 -277.95 273.349C-301.211 322.555 -304.537 372.026 -286.625 402.453C-281.349 411.418 -274.402 418.389 -266.034 423.22L-266.038 423.218Z" fill="white"/>
<path d="M311.737 199.417C315.903 201.823 319.947 204.227 323.878 206.641C364.481 231.568 390.795 255.665 402.093 278.268C413.144 300.381 409.355 320.501 390.832 338.072C335.787 393.474 286.653 430.285 250.777 457.159C235.317 468.741 221.967 478.742 212.29 487.216C196.485 501.014 163.724 509.429 124.663 509.725C83.9271 510.032 42.8532 501.591 11.9785 486.559C-18.4279 471.05 -58.6155 456.897 -104.251 445.624C-140.88 436.577 -179.545 429.761 -210.337 426.92C-229.304 425.157 -244.215 415.683 -253.45 399.518C-269.564 371.319 -266.542 326.182 -245.564 281.716C-223.704 234.955 -203.299 193.556 -174.952 160.497C-159.354 142.306 -142.668 128.146 -123.944 117.209C-103.108 105.039 -80.2841 97.1316 -54.1727 93.0397C-31.2674 89.1856 4.92406 92.2115 50.4887 101.792C94.0787 110.96 144.189 125.863 191.593 143.76C236.792 160.827 278.013 179.931 311.752 199.41L311.737 199.417ZM-233.11 418.767C-226.418 422.63 -218.747 425.003 -210.232 425.794C-179.389 428.639 -140.66 435.464 -103.98 444.525C-58.2608 455.82 -17.9878 470 12.4828 485.547C43.1964 500.496 84.0839 508.899 124.649 508.59C163.447 508.297 195.935 499.985 211.538 486.36C221.248 477.857 234.615 467.845 250.093 456.251C285.94 429.398 335.035 392.618 390.035 337.259C408.166 320.061 411.879 300.387 401.073 278.774C389.87 256.36 363.696 232.418 323.28 207.604C287.565 185.686 241.888 163.973 191.174 144.827C143.824 126.95 93.7745 112.061 50.2395 102.909C4.81429 93.3555 -31.2302 90.3343 -54.0056 94.1672C-79.9809 98.2362 -102.671 106.098 -123.385 118.194C-141.997 129.068 -158.59 143.148 -174.103 161.239C-202.353 194.187 -222.721 235.512 -244.549 282.201C-265.371 326.34 -268.409 371.078 -252.475 398.959C-247.574 407.537 -241.036 414.196 -233.12 418.766L-233.11 418.767Z" fill="white"/>
<path d="M293.194 215.459C295.267 216.656 297.303 217.853 299.309 219.054C335.687 240.815 359.325 261.888 369.567 281.691C379.351 300.609 376.481 317.868 361.025 332.989C314.591 382.978 268.398 419.676 234.67 446.47C221.297 457.094 209.745 466.269 200.83 474.162C185.139 488.004 155.581 496.474 119.736 497.404C83.1374 498.352 45.4343 491.082 16.2908 477.451C-40.6459 449.007 -126.126 428.561 -181.455 421.596C-198.108 419.482 -211.172 410.615 -219.234 395.954C-233.326 370.329 -230.584 329.965 -212.073 290.614C-193.537 250.684 -174.743 212.345 -148.746 182.161C-134.731 165.887 -119.736 153.176 -102.918 143.307C-84.2317 132.343 -63.8007 125.153 -40.4568 121.317C-19.6476 117.556 13.0356 119.871 54.0465 128.014C93.0855 135.766 138.071 148.629 180.714 164.232C223.303 179.819 262.013 197.457 293.196 215.455L293.194 215.459ZM-200.163 414.374C-194.598 417.587 -188.284 419.673 -181.331 420.557C-125.917 427.533 -40.2922 448.015 16.7391 476.508C45.7272 490.066 83.2583 497.3 119.701 496.353C155.307 495.429 184.62 487.053 200.127 473.371C209.061 465.463 220.624 456.278 234.008 445.645C267.712 418.873 313.868 382.202 360.269 332.253C375.373 317.474 378.178 300.632 368.628 282.169C358.478 262.542 334.972 241.609 298.764 219.952C266.649 200.753 225.706 181.815 180.346 165.221C137.755 149.638 92.8275 136.787 53.8356 129.046C12.9498 120.927 -19.5945 118.613 -40.2841 122.352C-63.5062 126.162 -83.8188 133.313 -102.391 144.21C-119.11 154.018 -134.016 166.658 -147.957 182.84C-173.869 212.924 -192.623 251.195 -211.128 291.053C-229.5 330.106 -232.258 370.101 -218.321 395.439C-213.794 403.673 -207.653 410.039 -200.163 414.364L-200.163 414.374Z" fill="white"/>
<path d="M274.552 231.31L274.781 231.442C306.936 250.034 327.9 268.083 337.087 285.081C345.597 300.817 343.619 315.226 331.21 327.902C292.783 373.523 248.229 411.087 215.697 438.513C205.509 447.103 196.71 454.518 189.352 461.104C174 474.794 146.821 483.532 114.795 485.08C82.3076 486.649 47.965 480.551 20.5825 468.342C-4.16339 456.298 -35.0374 445.044 -71.1944 434.874C-98.3929 427.227 -128.059 420.447 -152.595 416.271C-166.943 413.804 -178.165 405.536 -185.056 392.347C-197.107 369.289 -194.629 333.715 -178.589 299.507C-163.203 266.06 -146.197 231.123 -122.545 203.815C-110.107 189.458 -96.8121 178.201 -81.8907 169.395C-65.3571 159.64 -47.3142 153.16 -26.7384 149.591C10.3646 142.314 89.3848 156.419 169.878 184.686C209.833 198.715 246.018 214.836 274.552 231.31ZM-167.181 410.077C-162.758 412.631 -157.815 414.395 -152.426 415.321C-127.862 419.503 -98.1525 426.292 -70.9277 433.949C-34.7196 444.132 -3.79112 455.413 20.9932 467.473C48.2284 479.613 82.4046 485.685 114.751 484.119C146.563 482.581 173.521 473.93 188.713 460.387C196.079 453.796 204.883 446.373 215.077 437.781C247.584 410.378 292.1 372.845 330.496 327.26C342.598 314.893 344.52 300.868 336.236 285.546C327.132 268.708 306.294 250.785 274.295 232.284L274.067 232.152C245.585 215.708 209.458 199.615 169.556 185.606C89.2086 157.391 10.3967 143.305 -26.5655 150.55C-47.0344 154.102 -64.9693 160.543 -81.4039 170.237C-96.2285 178.987 -109.449 190.179 -121.818 204.454C-145.387 231.665 -162.354 266.534 -177.716 299.921C-193.63 333.865 -196.117 369.112 -184.202 391.906C-180.049 399.854 -174.284 405.981 -167.191 410.077L-167.181 410.077Z" fill="white"/>
<path d="M255.921 246.949C280.718 261.265 297.115 275.203 304.699 288.423C311.908 300.994 310.81 312.555 301.427 322.796C270.754 365.377 225.444 405.684 192.357 435.119C187.166 439.739 182.264 444.099 177.893 448.05C162.632 461.805 138.475 470.577 109.869 472.758C81.0251 474.952 50.8463 470.152 24.8923 459.238C7.35299 450.992 -42.2012 429.791 -123.718 410.945C-135.782 408.125 -145.183 400.432 -150.896 388.687C-160.863 368.205 -158.639 337.442 -145.094 308.407C-132.67 281.082 -117.632 249.886 -96.3324 225.477C-73.8241 199.679 -46.5713 184.109 -13.0124 177.869C3.63203 174.283 29.3137 175.168 61.243 180.418C91.6523 185.421 125.49 193.958 159.098 205.108C193.804 216.625 225.352 229.999 250.329 243.79C252.239 244.844 254.105 245.9 255.925 246.951L255.921 246.949ZM-134.159 405.915C-130.911 407.79 -127.35 409.189 -123.521 410.086C-110.479 413.101 -84.1554 419.522 -54.4016 428.661C-23.1607 438.252 3.63306 448.267 25.2453 458.432C51.0577 469.286 81.0884 474.065 109.795 471.877C138.205 469.711 162.177 461.018 177.293 447.394C181.664 443.443 186.569 439.079 191.762 434.455C224.825 405.043 270.102 364.765 300.719 322.254L300.753 322.214C309.863 312.287 310.931 301.065 303.928 288.859C295.982 275.008 277.299 259.686 249.896 244.56C224.962 230.795 193.471 217.442 158.814 205.943C125.251 194.808 91.4558 186.28 61.0919 181.282C29.2716 176.046 3.70591 175.165 -12.8436 178.725C-46.2094 184.926 -73.2994 200.409 -95.6715 226.046C-116.893 250.366 -131.898 281.495 -144.294 308.763C-157.734 337.569 -159.959 368.038 -150.105 388.289C-146.331 396.051 -140.911 402.006 -134.162 405.903L-134.159 405.915Z" fill="white"/>
<path d="M236.683 261.906C254.291 272.071 266.548 282.252 272.432 291.664C278.341 301.117 278.072 309.872 271.632 317.693C249.485 359.043 191.282 412.264 166.427 434.998C135.319 463.348 78.8863 469.572 29.198 450.131C-9.2566 432.866 -57.4699 417.519 -86.2739 408.347C-89.3309 407.373 -92.2027 406.457 -94.8526 405.611C-104.67 402.437 -112.259 395.273 -116.792 384.91C-124.621 367.013 -122.631 341.11 -111.601 317.301C-100.704 292.934 -88.1351 267.572 -70.1217 247.133C-50.9003 225.323 -27.7336 211.913 0.711907 206.14C29.3646 199.258 87.3245 206.844 148.367 225.473C177.716 234.432 204.545 245.007 225.953 256.053C229.722 257.999 233.305 259.95 236.69 261.904L236.683 261.906ZM-101.064 401.988C-99.0387 403.157 -96.8849 404.112 -94.6061 404.851C-91.9585 405.701 -89.0907 406.614 -86.0314 407.584C-57.213 416.76 -8.97099 432.112 29.5076 449.391C78.9081 468.719 134.994 462.558 165.888 434.404C190.723 411.696 248.882 358.513 270.947 317.276L270.986 317.208C277.212 309.675 277.472 301.225 271.756 292.086C264.815 280.984 248.847 268.768 225.584 256.758C204.218 245.731 177.434 235.171 148.133 226.23C87.2207 207.644 29.4245 200.062 0.885546 206.913C-62.2785 219.731 -88.9554 268.632 -110.871 317.621C-121.811 341.236 -123.797 366.891 -116.057 384.581C-112.672 392.321 -107.555 398.229 -101.063 401.977L-101.064 401.988Z" fill="white"/>
<path d="M217.395 276.219C228.158 282.433 236.047 288.697 240.345 294.662C244.97 301.087 245.475 307.111 241.846 312.564C238.93 325.614 227.406 344.084 207.597 367.467C193.163 384.503 173.98 404.358 154.959 421.94C124.392 450.112 78.9896 457.243 33.5021 441.019C18.0302 434.517 1.75602 428.043 -13.9833 421.782C-34.3396 413.683 -53.5631 406.03 -65.9914 400.276C-76.4309 395.392 -83.316 384.75 -85.3808 370.314C-87.339 356.63 -84.687 340.554 -78.1139 326.196C-63.625 293.016 -52.227 278.09 -43.9171 268.79C-27.9953 250.973 -8.90677 239.728 14.43 234.414C38.9955 227.693 86.2119 232.015 137.643 245.704C170.497 254.447 198.415 265.256 217.397 276.215L217.395 276.219ZM-67.8778 398.487C-67.1681 398.896 -66.4398 399.274 -65.6914 399.626C-53.2814 405.375 -34.0699 413.022 -13.7216 421.116C2.02173 427.379 18.2976 433.859 33.7575 440.354C78.9709 456.479 124.105 449.406 154.47 421.417C173.471 403.851 192.634 384.021 207.05 367.007C226.819 343.676 238.295 325.28 241.16 312.344L241.176 312.279L241.209 312.223C244.698 307.031 244.215 301.266 239.766 295.081C227.99 278.714 188.786 260.06 137.461 246.4C86.1457 232.74 39.0707 228.415 14.6063 235.108C-8.59369 240.39 -27.5556 251.563 -43.3793 269.266C-59.1321 286.892 -69.8657 309.104 -77.4531 326.487C-83.9797 340.727 -86.6088 356.662 -84.6695 370.212C-82.7872 383.361 -76.8576 393.297 -67.8755 398.483L-67.8778 398.487Z" fill="white"/>
<path d="M197.955 289.248C202.406 291.818 205.93 294.392 208.366 296.905C211.926 300.583 213.171 304.102 212.062 307.366C216.539 318.226 203.847 338.987 192.39 354.515C179.467 372.028 161.188 392.352 143.491 408.893C128.242 423.108 112.411 431.906 95.0848 435.792C77.3909 439.76 58.6574 438.49 37.8056 431.916C7.18051 420.314 -22.2315 405.796 -37.1377 394.925C-44.3753 389.598 -49.0144 380.242 -50.204 368.588C-51.314 357.685 -49.2807 345.477 -44.6188 335.096C-32.9471 307.315 -14.131 273.983 28.1498 262.693C48.4661 256.174 85.242 257.262 126.502 265.613C156.657 271.714 182.722 280.453 197.959 289.251L197.955 289.248ZM-23.3517 402.986C-7.37646 412.209 14.9715 422.59 38.0073 431.317C58.7306 437.854 77.3568 439.115 94.9392 435.174C112.154 431.314 127.891 422.568 143.052 408.431C176.133 377.523 219.216 325.776 211.427 307.502L211.38 307.39L211.42 307.274C212.513 304.224 211.329 300.885 207.906 297.349C197.216 286.306 165.211 274.094 126.367 266.235C85.2078 257.905 48.5508 256.805 28.3167 263.302C-13.7112 274.525 -32.4331 307.702 -44.0491 335.35L-44.0538 335.358C-48.6705 345.642 -50.6866 357.737 -49.5848 368.534C-48.4157 380.01 -43.8644 389.203 -36.7739 394.424C-33.1129 397.094 -28.5731 399.982 -23.3563 402.994L-23.3517 402.986Z" fill="white"/>
<path d="M178.136 298.805C180.057 299.914 181.411 301.022 182.116 302.107C185.588 303.492 187.699 306.031 188.401 309.641C190.454 320.207 180.218 337.685 171.268 350.493C160.621 365.73 145.943 382.679 132.01 395.838C116.241 410.714 103.33 419.233 90.1421 423.462C76.0807 427.972 60.8098 427.761 42.0931 422.805C21.2431 416.237 1.46459 403.184 -8.30106 389.548C-17.0192 377.266 -16.5946 356.741 -11.1444 343.995C-0.680228 317.194 17.1531 299.353 41.849 290.972C51.3936 287.219 64.197 284.953 79.8886 284.231C93.4753 283.608 108.85 284.194 124.36 285.936C148.637 288.66 169.318 293.725 178.127 298.811L178.136 298.805ZM181.754 302.55L181.706 302.474C181.046 301.415 179.733 300.336 177.86 299.255C158.469 288.059 79.0077 276.959 42.0507 291.483C17.501 299.816 -0.215999 317.547 -10.6193 344.197L-10.6239 344.205C-16.0161 356.813 -16.4495 377.103 -7.8404 389.232C1.86016 402.776 21.5293 415.751 42.2612 422.282C60.8614 427.209 76.0284 427.424 89.9903 422.947C103.094 418.744 115.941 410.263 131.648 395.447C145.556 382.312 160.201 365.392 170.832 350.183C179.721 337.462 189.892 320.123 187.878 309.75C187.208 306.308 185.178 303.897 181.842 302.591L181.759 302.559L181.754 302.55Z" fill="white"/>
<path d="M162.628 299.051C164.549 300.16 165.941 301.722 166.787 303.738C168.914 308.786 168.622 319.285 155.175 340.631C146.16 354.94 133.219 370.696 120.557 382.783C105.595 397.067 95.7473 406.104 85.2352 411.125C74.36 416.321 63.1137 417.067 46.4163 413.687C37.215 411.826 30.2636 406.985 25.759 399.303C16.0239 382.689 20.6861 358.093 22.3611 352.896C25.4917 343.186 32.4639 334.406 43.0889 326.801C52.2361 320.255 64.0976 314.554 78.355 309.853C104.122 301.358 133.37 297.667 152.148 297.044C156.568 296.898 160.072 297.57 162.631 299.047L162.628 299.051ZM36.6144 409.588C39.5416 411.278 42.8371 412.497 46.5054 413.237C63.0944 416.591 74.2568 415.861 85.0359 410.711C95.4865 405.713 105.308 396.704 120.237 382.448C143.321 360.412 173.033 319.765 166.364 303.916C164.471 299.415 159.695 297.261 152.168 297.51C133.423 298.13 104.227 301.814 78.5048 310.297C64.2939 314.983 52.471 320.663 43.3646 327.184C32.822 334.731 25.9064 343.431 22.8066 353.041C21.1445 358.198 16.5141 382.609 26.1648 399.073C28.8077 403.58 32.3062 407.095 36.6248 409.589L36.6144 409.588Z" fill="white"/>
</g>
</svg>
