<svg width="20" height="20" viewBox="0 0 20 20" fill="none" xmlns="http://www.w3.org/2000/svg">
<path d="M15.0583 7.09178L7.92498 3.52511C3.13331 1.12511 1.16664 3.09178 3.56664 7.88345L4.29164 9.33345C4.49998 9.75845 4.49998 10.2501 4.29164 10.6751L3.56664 12.1168C1.16664 16.9084 3.12498 18.8751 7.92498 16.4751L15.0583 12.9084C18.2583 11.3084 18.2583 8.69178 15.0583 7.09178ZM12.3666 10.6251H7.86664C7.52498 10.6251 7.24164 10.3418 7.24164 10.0001C7.24164 9.65845 7.52498 9.37511 7.86664 9.37511H12.3666C12.7083 9.37511 12.9916 9.65845 12.9916 10.0001C12.9916 10.3418 12.7083 10.6251 12.3666 10.6251Z" fill="#292D32"/>
</svg>
